<svg xmlns="http://www.w3.org/2000/svg" width="109.644" height="50" viewBox="0 0 109.644 50"><defs><style>.a{fill:#454545;}</style></defs><path class="a" d="M-122.673-214.258h1.42a3.789,3.789,0,0,1,2.569.815,3.4,3.4,0,0,1,1.19,2.674,3.316,3.316,0,0,1-1.222,2.674,3.487,3.487,0,0,1-2.548.8h-1.41Zm.773,6.235h.679a2.975,2.975,0,0,0,1.994-.627,2.666,2.666,0,0,0,.94-2.12,2.681,2.681,0,0,0-2.934-2.757h-.679Zm6.335-4.141a2.139,2.139,0,0,1,1.183.27,1.271,1.271,0,0,1,.533,1.081,1.28,1.28,0,0,1-1.227,1.344l1.548,2.176h-.657l-1.483-2.132h-.139v2.132h-.54v-4.872Zm-.241,2.257h.344c.672,0,1.074-.322,1.074-.891a.758.758,0,0,0-.387-.716,1.389,1.389,0,0,0-.7-.139h-.329Zm3.668-2.257v4.872h-.54v-4.872Zm1.257,4.872v-5.076l3.8,3.981v-3.776h.54v5.091l-3.8-3.98v3.761Zm6.137-2.782,2.074-2.089h.73l-2.278,2.271,2.352,2.6h-.745l-1.994-2.234-.139.139v2.1h-.541v-4.872h.541Zm5.479-1.125a1.185,1.185,0,0,0-.285-.366.879.879,0,0,0-.548-.168.747.747,0,0,0-.818.752.512.512,0,0,0,.182.424,1.594,1.594,0,0,0,.511.307l.468.2a2.379,2.379,0,0,1,.752.46,1.175,1.175,0,0,1,.351.884,1.461,1.461,0,0,1-1.541,1.5,1.452,1.452,0,0,1-1.059-.395,1.761,1.761,0,0,1-.453-.861l.526-.146a1.15,1.15,0,0,0,.292.621.93.93,0,0,0,.7.27.922.922,0,0,0,.978-.964.727.727,0,0,0-.241-.569,2.11,2.11,0,0,0-.584-.336l-.438-.2a2.158,2.158,0,0,1-.651-.4,1.011,1.011,0,0,1-.336-.8,1.259,1.259,0,0,1,1.366-1.256,1.324,1.324,0,0,1,.782.219,1.475,1.475,0,0,1,.474.541Zm4.31-3.059h1.42a3.788,3.788,0,0,1,2.569.815,3.4,3.4,0,0,1,1.19,2.674A3.318,3.318,0,0,1-91-208.1a3.488,3.488,0,0,1-2.548.8h-1.41Zm.773,6.235h.679a2.977,2.977,0,0,0,1.995-.627,2.666,2.666,0,0,0,.94-2.12,2.681,2.681,0,0,0-2.934-2.757h-.679Zm8.081-3.629h-1.987v1.446h1.928v.511h-1.928v1.892H-86.1v.511h-2.527v-4.872H-86.1Zm1.535-.512v4.361h1.344v.511h-1.884v-4.872Zm2.616,0v4.872h-.54v-4.872Zm1.286,0,1.373,3.718,1.373-3.718h.6L-79.293-207l-1.972-5.164Zm6.56.512h-1.987v1.446h1.928v.511h-1.928v1.892h1.987v.511h-2.527v-4.872h2.527Zm1.776-.512a2.14,2.14,0,0,1,1.183.27,1.271,1.271,0,0,1,.533,1.081,1.28,1.28,0,0,1-1.227,1.344l1.548,2.176h-.657l-1.483-2.132h-.139v2.132h-.54v-4.872Zm-.241,2.257h.344c.672,0,1.073-.322,1.073-.891a.757.757,0,0,0-.387-.716,1.39,1.39,0,0,0-.7-.139h-.329Zm3.931.519-1.6-2.776h.628l1.241,2.177,1.256-2.177h.628l-1.615,2.776v2.1h-.54Zm-72.277-19.1a4.192,4.192,0,0,0-2.919-1.194,3.843,3.843,0,0,0-3.919,4.1,3.884,3.884,0,0,0,3.935,4.032,4.266,4.266,0,0,0,2.9-1.242v1.952a5.867,5.867,0,0,1-2.951.806,5.39,5.39,0,0,1-3.806-1.484,5.274,5.274,0,0,1-1.726-4.064,5.629,5.629,0,0,1,1.726-4.21,5.328,5.328,0,0,1,3.887-1.4,5.11,5.11,0,0,1,2.87.774ZM-137.24-231v9.209h3.161v1.548h-4.806V-231Zm6.355,0v6.484a3.758,3.758,0,0,0,.339,1.854,2.355,2.355,0,0,0,2,1.113,2.353,2.353,0,0,0,2-1.113,3.752,3.752,0,0,0,.339-1.854V-231h1.645v6.919a3.985,3.985,0,0,1-1,2.79,3.925,3.925,0,0,1-2.984,1.258,3.925,3.925,0,0,1-2.984-1.258,3.983,3.983,0,0,1-1-2.79V-231Zm10.532,0a3.97,3.97,0,0,1,2.968.839,2.76,2.76,0,0,1,.855,2.129,2.346,2.346,0,0,1-.323,1.274,1.776,1.776,0,0,1-.806.741,2.963,2.963,0,0,1,1.387.774,2.8,2.8,0,0,1,.71,2.016,2.626,2.626,0,0,1-.71,1.936,4.171,4.171,0,0,1-3.016,1.048h-2.693V-231Zm.017,4.629h.5a1.9,1.9,0,0,0,1.339-.419,1.632,1.632,0,0,0,.419-1.226,1.327,1.327,0,0,0-.387-1.032,1.763,1.763,0,0,0-1.306-.4h-.565Zm0,4.58h1a2.838,2.838,0,0,0,1.628-.419,1.544,1.544,0,0,0,.532-1.194,1.613,1.613,0,0,0-.435-1.129,2.364,2.364,0,0,0-1.694-.484h-1.032Zm18.564-6.693a4.194,4.194,0,0,0-2.919-1.194,3.843,3.843,0,0,0-3.919,4.1,3.884,3.884,0,0,0,3.935,4.032,4.268,4.268,0,0,0,2.9-1.242v1.952a5.87,5.87,0,0,1-2.952.806,5.389,5.389,0,0,1-3.806-1.484,5.274,5.274,0,0,1-1.726-4.064,5.629,5.629,0,0,1,1.726-4.21,5.328,5.328,0,0,1,3.887-1.4,5.113,5.113,0,0,1,2.871.774Zm12.37,2.87a5.457,5.457,0,0,1-5.6,5.581,5.457,5.457,0,0,1-5.6-5.581A5.457,5.457,0,0,1-95-231.2,5.457,5.457,0,0,1-89.4-225.616Zm-1.645,0A3.85,3.85,0,0,0-95-229.68a3.85,3.85,0,0,0-3.952,4.064A3.851,3.851,0,0,0-95-221.551,3.851,3.851,0,0,0-91.047-225.616Zm3.71,5.371v-11.483l7.806,8.177V-231h1.645v11.419l-7.806-8.177v7.516Zm12.032,0v-11.483l7.806,8.177V-231h1.645v11.419l-7.806-8.177v7.516Zm17.967-9.209h-4.29v2.726h4.161v1.548h-4.161v3.387h4.29v1.548h-5.935V-231h5.935Zm10.1.968a4.194,4.194,0,0,0-2.919-1.194,3.842,3.842,0,0,0-3.919,4.1,3.884,3.884,0,0,0,3.935,4.032,4.267,4.267,0,0,0,2.9-1.242v1.952a5.87,5.87,0,0,1-2.952.806A5.389,5.389,0,0,1-54-221.519a5.275,5.275,0,0,1-1.726-4.064A5.629,5.629,0,0,1-54-229.792a5.328,5.328,0,0,1,3.887-1.4,5.113,5.113,0,0,1,2.871.774Zm5.016-.968v9.209H-43.87v-9.209h-2.468V-231h6.581v1.548Zm-61.729-12.616h1.736V-241a1.017,1.017,0,0,0,1.015,1.015h4.916A1.017,1.017,0,0,0-95.274-241v-7.512a1.384,1.384,0,0,0,.511-1.889,1.385,1.385,0,0,0-.858-.652v-.044a1.738,1.738,0,0,0-1.736-1.736h-2.778a1.989,1.989,0,0,0-1.711,1.774,1.384,1.384,0,0,0-1.03,1.665,1.384,1.384,0,0,0,.658.883v.54h-1.736A1.042,1.042,0,0,0-105-246.931v3.819A1.042,1.042,0,0,0-103.954-242.069Zm2.431-8.333h.347v-.347c0-.606.5-1.389,1.041-1.389h2.778a1.041,1.041,0,0,1,1.041,1.041v.695h.347a.7.7,0,0,1,.695.694.7.7,0,0,1-.695.695h-2.083v1.736a.347.347,0,0,1-.347.347.347.347,0,0,1-.347-.347v-1.041h-.694v2.431a.347.347,0,0,1-.347.347.347.347,0,0,1-.347-.347v-3.125h-1.389a.694.694,0,0,1-.695-.695A.694.694,0,0,1-101.524-250.4Zm0,2.083h.694v2.431a1.042,1.042,0,0,0,1.042,1.041,1.041,1.041,0,0,0,1.041-1.041v-.407a1.042,1.042,0,0,0,1.33-.634,1.051,1.051,0,0,0,.06-.348v-1.041h1.389V-241a.32.32,0,0,1-.32.32H-101.2a.32.32,0,0,1-.32-.32h0Zm-.695,4.167h-.695v-1.736h.695Zm-2.083-2.778a.347.347,0,0,1,.347-.347h1.736v.695h-1.389v3.125h1.389v.694h-1.736a.347.347,0,0,1-.347-.347Zm4.861-2.778h.694v.695h-.694Zm14.236,4.167H-86.94v-.54a1.384,1.384,0,0,0,.511-1.89,1.387,1.387,0,0,0-.886-.659,1.736,1.736,0,0,0-2.019-1.4,1.736,1.736,0,0,0-.951.516,1.736,1.736,0,0,0-2.362-.671,1.736,1.736,0,0,0-.89,1.516v.044a1.384,1.384,0,0,0-1,1.683,1.385,1.385,0,0,0,.652.858v7.512a1.017,1.017,0,0,0,1.015,1.015h4.916a1.017,1.017,0,0,0,1.015-1.015v-1.069H-85.2a1.042,1.042,0,0,0,1.041-1.042V-244.5A1.041,1.041,0,0,0-85.2-245.541Zm-7.986-2.431h.347v-.695a1.042,1.042,0,0,1,1.041-1.042,1.042,1.042,0,0,1,1.042,1.042v.347h.694a1.042,1.042,0,0,1,1.042-1.042,1.042,1.042,0,0,1,1.041,1.042v.347h.347a.7.7,0,0,1,.695.694.7.7,0,0,1-.695.695h-1.389v3.125a.347.347,0,0,1-.347.347.347.347,0,0,1-.347-.347v-2.431h-.695v1.041a.347.347,0,0,1-.347.347.347.347,0,0,1-.347-.347v-1.736H-93.19a.694.694,0,0,1-.695-.695A.694.694,0,0,1-93.19-247.972Zm5.555,9.4a.32.32,0,0,1-.32.32H-92.87a.32.32,0,0,1-.32-.32h0v-7.319H-91.8v1.041a1.042,1.042,0,0,0,1.041,1.042,1.032,1.032,0,0,0,.347-.06v.407a1.042,1.042,0,0,0,1.042,1.041,1.041,1.041,0,0,0,1.041-1.041v-2.431h.695Zm.695-4.888h.694v1.736h-.694Zm2.083,2.777a.347.347,0,0,1-.347.347H-86.94v-.695h1.389v-3.125H-86.94v-.695H-85.2a.347.347,0,0,1,.347.347Zm-5.556-6.6h.695v.695h-.695Zm1.389,7.639h-.695v.694h1.389v-1.736h-.694Zm-2.083,0h.694v.694h-.694Zm-2.778-13.542a1.389,1.389,0,0,0,1.389,1.389,1.389,1.389,0,0,0,1.389-1.389,1.389,1.389,0,0,0-1.389-1.389A1.389,1.389,0,0,0-93.885-253.181Zm2.083,0a.694.694,0,0,1-.695.695.694.694,0,0,1-.694-.695.694.694,0,0,1,.694-.694A.694.694,0,0,1-91.8-253.181Zm-5.555-2.431a1.389,1.389,0,0,0,1.389,1.389,1.389,1.389,0,0,0,1.389-1.389A1.389,1.389,0,0,0-95.968-257,1.389,1.389,0,0,0-97.357-255.611Zm2.083,0a.7.7,0,0,1-.695.695.7.7,0,0,1-.695-.695.7.7,0,0,1,.695-.694A.7.7,0,0,1-95.274-255.611Z" transform="translate(149.401 257)"/></svg>